<svg xmlns="http://www.w3.org/2000/svg" width="120" height="62" viewBox="0 0 120 62" fill="none">
<path d="M116.344 43.8171L115.754 43.421C113.706 42.0441 113.141 41.351 113.141 40.2028C113.141 38.7481 114.532 38.2294 115.723 38.2294C117.69 38.2294 118.238 39.09 118.257 39.1182C118.362 39.3045 118.519 39.8161 118.543 40.0401C118.564 40.1816 118.602 40.448 118.909 40.448C119.252 40.448 119.252 40.0755 119.252 39.8279C119.252 38.7646 119.309 38.1398 119.336 37.8758C119.343 37.7979 119.348 37.7484 119.348 37.7272C119.348 37.4113 119.064 37.4113 118.957 37.4113C118.797 37.4113 118.647 37.4113 118.266 37.3241C117.776 37.2085 116.942 37.0859 116.078 37.0859C113.175 37.0859 111.3 38.6208 111.3 40.9973C111.3 42.5156 112.184 43.7888 114.344 45.3873L115.289 46.0899C117.138 47.4479 117.835 48.0868 117.835 49.4048C117.835 50.9231 116.711 51.8662 114.899 51.8662C113.599 51.8662 112.101 51.3852 111.793 50.0366C111.727 49.7773 111.727 49.5132 111.727 49.3553C111.727 49.0535 111.536 48.9474 111.36 48.9474C111.234 48.9474 111.019 49.0134 111.019 49.4378C111.015 49.5038 111.008 49.5887 110.998 49.6924C110.962 50.0932 110.9 50.7651 110.9 51.5526C110.9 52.0878 110.919 52.267 111.31 52.4603C112.377 52.9578 113.83 53.0144 114.406 53.0144C115.909 53.0144 117.052 52.7692 117.804 52.2835C119.14 51.4206 119.819 50.2323 119.819 48.7493C119.819 46.9151 118.814 45.4863 116.344 43.8171Z" fill="#162B75"/>
<path d="M19.271 33.9883C18.778 33.9883 18.1422 34.0213 17.7206 34.0449C17.5396 34.0543 17.4087 34.0614 17.3634 34.0614C17.261 34.0614 17.0562 34.052 16.7895 34.0402C16.2894 34.0166 15.6011 33.9883 14.9676 33.9883C14.7128 33.9883 14.2389 33.9883 14.2389 34.3702C14.2389 34.4952 14.3008 34.7027 14.6985 34.7027C14.9557 34.7027 15.3034 34.7027 15.544 34.7781C15.7273 34.8701 15.7559 35.061 15.7559 35.1671C15.7559 35.3793 15.6368 35.7613 15.5463 36.0348C15.0486 37.645 12.0241 45.4772 10.5024 49.0302L5.96801 37.0627C5.6346 36.2092 5.32024 35.4029 5.32024 35.12C5.32024 34.9879 5.35596 34.8819 5.52505 34.8064C5.70128 34.7286 6.09423 34.7027 6.37762 34.7027C6.76819 34.7027 6.81105 34.4527 6.81105 34.3443C6.81105 33.9883 6.27998 33.9883 5.96086 33.9883C5.34406 33.9883 4.6439 34.0213 4.18189 34.0425C3.94612 34.0519 3.76751 34.0614 3.68654 34.0614C3.5889 34.0614 3.3698 34.0519 3.08164 34.0425C2.4958 34.0213 1.60989 33.9883 0.823996 33.9883C0.476299 33.9883 0 33.9883 0 34.3443C0 34.5612 0.150034 34.7027 0.383419 34.7027C0.516783 34.7027 0.921636 34.7027 1.26219 34.7923C2.03379 35.0115 2.37434 35.2214 2.89827 36.5464L8.89247 51.395L8.95915 51.5624C9.40449 52.6776 9.54024 53.0171 9.94747 53.0171C10.2547 53.0171 10.3666 52.7695 10.7405 51.9467C10.85 51.7086 10.981 51.4209 11.1454 51.0673C11.6931 49.9144 12.7314 47.453 14.1698 44.0438L15.2868 41.3772C16.1608 39.2931 16.849 37.6474 17.0467 37.1523C17.6873 35.5538 18.0398 35.1553 18.3208 34.9644C18.7375 34.7027 19.2305 34.7027 19.3924 34.7027C19.8116 34.7027 19.8735 34.4787 19.8735 34.3443C19.8759 34.1085 19.6735 33.9883 19.271 33.9883Z" fill="#C4842A"/>
<path d="M24.5589 51.9936C24.3874 51.9936 23.9563 51.9512 23.6348 51.9017C23.1728 51.831 23.1062 51.6117 23.0323 51.0058C22.9395 50.1924 22.9395 48.6552 22.9395 46.7054V43.1854C22.9395 40.085 22.9395 39.5263 22.9609 38.9039C23.0085 38.2225 23.1133 38.0551 23.5491 37.9655C23.7682 37.9207 23.8968 37.9207 24.0349 37.9207C24.2088 37.9207 24.385 37.7462 24.385 37.5741C24.385 37.3431 24.2112 37.2275 23.8706 37.2275C23.4062 37.2275 22.5703 37.2511 22.1059 37.2653C21.9297 37.27 21.8106 37.2747 21.7844 37.2747C21.7511 37.2747 21.6153 37.27 21.4248 37.2653C20.9581 37.2511 20.1603 37.2275 19.6721 37.2275C19.3315 37.2275 19.1553 37.3431 19.1553 37.5741C19.1553 37.7368 19.2982 37.9207 19.503 37.9207C19.634 37.9207 19.884 37.9443 20.1055 37.9891C20.4103 38.0527 20.5746 38.2107 20.6246 38.9039C20.6699 39.531 20.6699 40.0898 20.6699 43.1854V46.7054C20.6699 48.3369 20.6556 50.1193 20.5532 51.0058C20.4794 51.6259 20.4103 51.8427 20.146 51.9064C19.9721 51.9512 19.7244 51.996 19.5506 51.996C19.3315 51.996 19.2005 52.1728 19.2005 52.3426C19.2005 52.4723 19.2672 52.6892 19.7173 52.6892C20.1698 52.6892 20.9462 52.6538 21.4105 52.6326C21.6058 52.6232 21.7463 52.6184 21.7797 52.6184C21.8011 52.6184 21.8797 52.6232 22.0035 52.6279C22.4465 52.6467 23.48 52.6915 24.3898 52.6915C24.8661 52.6915 24.9042 52.4251 24.9042 52.3449C24.9066 52.1705 24.778 51.9936 24.5589 51.9936Z" fill="#C4842A"/>
<path d="M42.1793 37.2279C41.6172 37.2279 41.1267 37.2491 40.7885 37.2633C40.6146 37.2703 40.4813 37.2774 40.4003 37.2774C40.3217 37.2774 40.1622 37.2727 39.9478 37.2656C39.5096 37.2515 38.8547 37.2303 38.2189 37.2303C38.0426 37.2303 37.633 37.2303 37.633 37.5533C37.633 37.7749 37.7735 37.9234 37.9831 37.9234C38.1379 37.9234 38.5999 37.947 38.969 38.0154C39.4287 38.1003 39.5763 38.3407 39.6025 39.694L39.8073 49.2261C39.593 49.0021 39.3215 48.7168 39.0048 48.3844C37.976 47.3022 36.5661 45.8216 35.1991 44.4212C33.0082 42.1884 30.922 40.0194 29.6765 38.7227C29.0954 38.1191 28.7096 37.7183 28.6048 37.6122L28.5072 37.5156C28.1928 37.1949 27.9285 36.9497 27.6689 36.9497C27.2378 36.9497 27.2021 37.5627 27.2021 38.1403V49.5727C27.2021 51.3551 27.1164 51.7842 26.7377 51.8879C26.4519 51.9751 26.0923 51.9964 25.9399 51.9964C25.7446 51.9964 25.5898 52.1496 25.5898 52.343C25.5898 52.6895 25.9637 52.6895 26.1042 52.6895C26.7639 52.6895 27.3974 52.6542 27.776 52.6329C27.9428 52.6235 28.0618 52.6188 28.1214 52.6188C28.1738 52.6188 28.2762 52.6259 28.4214 52.6329C28.8144 52.6542 29.4717 52.6895 30.3242 52.6895C30.7886 52.6895 30.8887 52.5009 30.8887 52.343C30.8887 52.1496 30.7339 51.9964 30.5386 51.9964C30.3195 51.9964 29.8741 51.9657 29.5431 51.8856C29.1192 51.7795 28.9239 51.4518 28.8739 49.7778L28.6501 40.8493C29.5336 41.7947 31.4816 43.82 33.7274 46.1517C35.9088 48.4056 38.9285 51.3551 39.1643 51.5602C40.4027 52.6872 40.5956 52.8286 40.8766 52.8286C41.2267 52.8286 41.2267 52.5504 41.2267 51.216L41.2743 39.5243C41.2743 38.2747 41.3529 38.0696 41.8625 37.9658C42.0816 37.9211 42.2341 37.9211 42.3269 37.9211C42.5675 37.9211 42.7461 37.7277 42.7461 37.5509C42.7413 37.2279 42.3341 37.2279 42.1793 37.2279Z" fill="#C4842A"/>
<path d="M61.8995 51.9936C61.7518 51.9936 61.2922 51.9488 61.0016 51.9017C60.523 51.831 60.4753 51.6282 60.3991 51.0058C60.2943 50.1122 60.28 48.3298 60.28 46.7054V43.1854C60.28 40.0898 60.28 39.531 60.3277 38.9015C60.3753 38.2201 60.4753 38.0527 60.8897 37.9655C61.1326 37.9207 61.2422 37.9207 61.3779 37.9207C61.5684 37.9207 61.7494 37.7533 61.7494 37.5741C61.7494 37.4162 61.6565 37.2275 61.2088 37.2275C60.7778 37.2275 60.0014 37.2511 59.5299 37.2653C59.3275 37.2723 59.1822 37.2771 59.1465 37.2771C59.125 37.2771 59.0298 37.2747 58.8869 37.27C58.4296 37.2558 57.4794 37.2299 56.7769 37.2299C56.4339 37.2299 56.2625 37.3454 56.2625 37.5765C56.2625 37.7392 56.4054 37.9231 56.6126 37.9231C56.7888 37.9231 57.1341 37.9466 57.2984 37.9679C57.8366 38.0433 57.9224 38.2249 57.9676 38.9251C57.9914 39.5428 58.0152 40.1817 58.0152 43.2349V43.5933H49.4443V43.2372C49.4443 40.1676 49.4443 39.531 49.4681 38.9062C49.5133 38.2272 49.6181 38.0598 50.0563 37.9679C50.273 37.9231 50.404 37.9231 50.5421 37.9231C50.716 37.9231 50.8898 37.7486 50.8898 37.5765C50.8898 37.3454 50.716 37.2299 50.3754 37.2299C49.9111 37.2299 49.0871 37.2535 48.6298 37.2676C48.4583 37.2723 48.3393 37.2771 48.3131 37.2771C48.2821 37.2771 48.1726 37.2747 48.0082 37.2676C47.5319 37.2535 46.6222 37.2275 45.9197 37.2275C45.5791 37.2275 45.4053 37.3431 45.4053 37.5741C45.4053 37.7462 45.5839 37.9207 45.7554 37.9207C45.9316 37.9207 46.2745 37.9443 46.4412 37.9655C46.9961 38.0433 47.0914 38.2461 47.1366 38.9039C47.1842 39.531 47.1842 40.0874 47.1842 43.1854V46.7054C47.1842 48.6528 47.1842 50.19 47.0652 50.9987L47.0556 51.0553C46.9604 51.6494 46.908 51.8451 46.6579 51.904C46.4841 51.9488 46.2364 51.9936 46.0626 51.9936C45.8435 51.9936 45.7125 52.1705 45.7125 52.3402C45.7125 52.4699 45.7792 52.6868 46.2293 52.6868C46.6818 52.6868 47.47 52.6514 47.9392 52.6302C48.1368 52.6208 48.2797 52.6161 48.3131 52.6161C48.3345 52.6161 48.4107 52.6208 48.5346 52.6255C48.9727 52.6444 49.9896 52.6892 50.8994 52.6892C51.3757 52.6892 51.4138 52.4228 51.4138 52.3426C51.4138 52.1752 51.2923 51.996 51.0661 51.996C50.8946 51.996 50.4659 51.9536 50.1444 51.904C49.6824 51.8333 49.6134 51.6141 49.5395 51.0081C49.4443 50.1947 49.4443 48.6764 49.4443 46.7549V44.824H58.0152V46.7549C58.0152 48.6646 58.0152 50.1712 57.92 50.9822C57.8438 51.6117 57.77 51.8451 57.4866 51.9064C57.2532 51.9653 57.0555 51.996 56.915 51.996C56.6959 51.996 56.5673 52.1728 56.5673 52.3426C56.5673 52.5713 56.7412 52.6892 57.0817 52.6892C57.5294 52.6892 58.3701 52.6514 58.8202 52.6326C58.9964 52.6255 59.1203 52.6184 59.1465 52.6184C59.175 52.6184 59.2727 52.6232 59.4203 52.6279C59.8895 52.6467 60.8659 52.6892 61.7304 52.6892C62.2448 52.6892 62.271 52.4015 62.271 52.3426C62.2733 52.1681 62.1447 51.9936 61.8995 51.9936Z" fill="#162B75"/>
<path d="M70.7794 36.9473C64.9447 36.9473 62.3203 41.6107 62.3203 44.9233C62.3203 48.7875 64.9304 52.9464 70.6603 52.9464C75.5352 52.9464 79.2122 49.3651 79.2122 44.6168C79.2122 40.0287 75.8233 36.9473 70.7794 36.9473ZM71.2509 51.7581C67.4191 51.7581 64.8447 48.7922 64.8447 44.381C64.8447 40.4248 67.019 38.0601 70.6603 38.0601C73.6729 38.0601 76.714 40.2622 76.714 45.1779C76.7116 51.4422 72.163 51.7581 71.2509 51.7581Z" fill="#162B75"/>
<path d="M99.4205 51.9939C99.2205 51.9939 98.6894 51.9939 98.1274 51.8147C97.4463 51.5907 97.2724 50.7632 97.1867 49.9027L95.7626 37.6475C95.6887 37.0699 95.4554 36.9473 95.272 36.9473C94.9933 36.9473 94.8528 37.2255 94.7743 37.3787L88.8658 49.4194L82.7263 37.3528C82.5501 36.9991 82.2786 36.9473 82.1357 36.9473C81.9166 36.9473 81.7523 37.15 81.7166 37.4612L80.1996 50.4874L80.1757 50.6807C80.0876 51.3998 80.0138 51.8454 79.547 51.9256L79.4875 51.935C79.2303 51.9751 79.0993 51.9939 78.9612 51.9939C78.7421 51.9939 78.5635 52.1377 78.5635 52.3169C78.5635 52.4537 78.6325 52.6871 79.1041 52.6871C79.4684 52.6871 80.0043 52.6588 80.3948 52.6376C80.6139 52.6258 80.7878 52.6163 80.8545 52.6163C80.9069 52.6163 81.0402 52.6234 81.2212 52.6329C81.6356 52.6541 82.2619 52.6871 82.8025 52.6871C83.2693 52.6871 83.3669 52.4867 83.3669 52.3169C83.3669 52.1354 83.1788 51.9939 83.0169 51.9939C82.8621 51.9939 82.5715 51.9633 82.2524 51.8807C81.8952 51.7982 81.8952 51.5695 81.8952 51.4941C81.8952 51.1664 81.8952 50.7962 81.9166 50.5015L82.6763 42.0045C83.0597 42.8155 83.7694 44.2513 84.3624 45.449C84.6672 46.0691 84.9411 46.6231 85.1245 46.9957C85.6627 48.1108 87.0725 50.7279 87.5703 51.6285C87.9775 52.3617 88.1299 52.6376 88.4443 52.6376C88.7586 52.6376 88.9015 52.3782 89.3445 51.4776L94.1241 41.7852L95.0672 51.3267C95.1053 51.6285 95.0838 51.7888 95.0648 51.8454C94.9195 51.8972 94.8266 52.0269 94.8266 52.1731C94.8266 52.4678 95.1839 52.5268 95.584 52.5645C96.3579 52.6352 98.6966 52.6824 99.1586 52.6824C99.5301 52.6824 99.7706 52.5362 99.7706 52.3122C99.7706 52.1307 99.6229 51.9939 99.4205 51.9939Z" fill="#162B75"/>
<path d="M109.89 49.622C109.585 49.622 109.528 49.9049 109.492 50.0817C109.375 50.8715 109.094 51.1356 108.661 51.3242C108.147 51.5246 107.165 51.5246 106.639 51.5246C104.579 51.5246 104.377 51.2724 104.334 50.0982C104.317 49.8153 104.324 48.5304 104.329 47.5897C104.331 47.2195 104.334 46.8965 104.334 46.7055L104.336 45.0811C104.829 45.0835 106.892 45.107 107.425 45.1731C108.242 45.2674 108.299 45.5055 108.339 45.6682C108.425 45.8945 108.425 46.0808 108.425 46.2623C108.425 46.5169 108.59 46.6301 108.751 46.6301C108.978 46.6301 109.123 46.4108 109.123 46.0737C109.123 45.9511 109.171 45.2061 109.216 44.7935C109.247 44.3715 109.306 44.0956 109.344 43.9117C109.368 43.8056 109.383 43.7372 109.383 43.6783C109.383 43.4213 109.218 43.3317 109.078 43.3317C108.944 43.3317 108.851 43.4284 108.723 43.5604L108.642 43.6429C108.48 43.8009 108.218 43.8268 107.782 43.8693L107.732 43.874C107.394 43.907 105.77 43.9211 104.329 43.9211C104.329 43.9117 104.329 43.9023 104.329 43.8928V38.4702C104.329 38.4584 104.329 38.449 104.331 38.4395C104.829 38.4419 106.942 38.4678 107.254 38.5079C108.392 38.6494 108.504 38.7838 108.601 39.0054C108.682 39.2081 108.706 39.5099 108.706 39.6419C108.706 40.0498 108.973 40.0829 109.056 40.0829C109.249 40.0829 109.383 39.9013 109.423 39.7268C109.454 39.576 109.483 39.2294 109.514 38.7932C109.525 38.614 109.537 38.4608 109.547 38.3877C109.575 38.0552 109.628 37.8478 109.666 37.6945C109.692 37.5884 109.711 37.5106 109.711 37.4352C109.711 37.0839 109.48 37.0674 109.435 37.0674C109.337 37.0674 109.254 37.1051 109.187 37.1334C109.159 37.1452 109.132 37.1593 109.125 37.1617L108.997 37.1829C108.801 37.2136 108.506 37.2607 108.197 37.2772C108.058 37.2843 107.568 37.289 106.734 37.289C105.586 37.289 104.105 37.2819 103.5 37.2796H103.226C103.195 37.2796 103.081 37.2772 102.91 37.2701C102.426 37.256 101.507 37.23 100.807 37.23C100.464 37.23 100.29 37.3456 100.29 37.5766C100.29 37.7488 100.466 37.9232 100.64 37.9232C100.828 37.9232 101.176 37.9468 101.328 37.968C101.881 38.0434 101.976 38.2462 102.024 38.9063C102.071 39.5335 102.071 40.0923 102.071 43.1879V46.7079C102.071 48.6553 102.071 50.1925 101.955 51.0012L101.945 51.0625C101.852 51.6519 101.798 51.8618 101.569 51.9018C101.493 51.9113 101.407 51.9278 101.321 51.9443C101.188 51.9702 101.05 51.9961 100.95 51.9961C100.731 51.9961 100.602 52.173 100.602 52.3427C100.602 52.4724 100.669 52.6893 101.116 52.6893C101.471 52.6893 101.981 52.661 102.336 52.6421C102.783 52.6186 103.181 52.6186 103.229 52.6186C103.524 52.6186 104.077 52.6186 104.953 52.6657L105.467 52.6799C106.289 52.7058 107.308 52.7365 108.585 52.7365C109.406 52.7365 109.745 52.7365 109.926 52.0857C110.047 51.6401 110.216 50.268 110.216 50.1124C110.216 49.6691 109.987 49.622 109.89 49.622Z" fill="#162B75"/>
<path d="M42.7422 59.1211H0.0302734V59.6704H42.7422V59.1211Z" fill="#C4842A"/>
<path d="M45.7354 61.0615V57.7183H45.8068L48.0549 60.2811V57.7183H48.3883V61.0615H48.3121L46.0854 58.5317V61.0615H45.7354Z" fill="#C4842A"/>
<path d="M54.22 57.7183H53.8818V61.0615H54.22V57.7183Z" fill="#C4842A"/>
<path d="M56.9473 57.7183H57.2807V59.1211H59.0049V57.7183H59.3407V61.0615H59.0049V59.4441H57.2807V61.0615H56.9473V57.7183Z" fill="#C4842A"/>
<path d="M62.0467 57.7183L63.6232 61.0615H63.2565L62.7254 59.9604H61.2703L60.744 61.0615H60.3701L61.9633 57.7183H62.0467ZM62.0062 58.4303L61.4299 59.6398H62.5801L62.0062 58.4303Z" fill="#C4842A"/>
<path d="M64.6514 61.0615V57.7183H64.7252L66.9686 60.2811V57.7183H67.2972V61.0615H67.2257L64.9967 58.5317V61.0615H64.6514Z" fill="#C4842A"/>
<path d="M68.3955 57.7183H68.7337V59.1211H70.4507V57.7183H70.7889V61.0615H70.4507V59.4441H68.7337V61.0615H68.3955V57.7183Z" fill="#C4842A"/>
<path d="M73.5756 57.7183H74.2496C74.633 57.7183 74.8902 57.7348 75.0259 57.7678C75.2188 57.8173 75.376 57.914 75.4999 58.0578C75.6213 58.2016 75.6832 58.3878 75.6832 58.6071C75.6832 58.8311 75.6213 59.015 75.5022 59.1588C75.3832 59.3003 75.2212 59.4016 75.0117 59.4488C74.8569 59.4865 74.5735 59.503 74.1519 59.503H73.9114V61.0567H73.5732V57.7183H73.5756ZM73.9138 58.0507V59.18L74.4853 59.1894C74.7163 59.1894 74.8831 59.1659 74.9926 59.1258C75.0998 59.0833 75.1831 59.0173 75.245 58.923C75.3046 58.8311 75.3355 58.725 75.3355 58.6118C75.3355 58.4987 75.3046 58.3996 75.245 58.3053C75.1831 58.211 75.1022 58.145 75.0045 58.1073C74.8997 58.0696 74.7378 58.0507 74.5092 58.0507H73.9138Z" fill="#C4842A"/>
<path d="M76.7295 57.7183H77.0677V59.1211H78.7847V57.7183H79.1205V61.0615H78.7847V59.4441H77.0677V61.0615H76.7295V57.7183Z" fill="#C4842A"/>
<path d="M80.1811 57.7183H80.5193V59.7341C80.5193 59.9746 80.524 60.1255 80.5312 60.182C80.5478 60.3164 80.5883 60.4272 80.6479 60.5145C80.7098 60.6017 80.805 60.6772 80.9313 60.7385C81.0599 60.7974 81.1861 60.828 81.3147 60.828C81.4242 60.828 81.5362 60.8045 81.6338 60.7573C81.7386 60.7054 81.8219 60.6441 81.8934 60.5593C81.9601 60.4744 82.0101 60.3754 82.0434 60.2575C82.0649 60.1726 82.0791 59.9981 82.0791 59.7341V57.7183H82.4125V59.7341C82.4125 60.0359 82.384 60.274 82.3244 60.4626C82.2649 60.6418 82.1506 60.8021 81.9743 60.9412C81.7957 61.0756 81.5814 61.1487 81.3314 61.1487C81.0599 61.1487 80.8241 61.0803 80.6312 60.9506C80.4407 60.8233 80.3073 60.6536 80.2406 60.439C80.2001 60.3094 80.1787 60.0759 80.1787 59.7341V57.7183H80.1811Z" fill="#C4842A"/>
<path d="M86.76 58.3406L86.4909 58.541C86.3457 58.3524 86.167 58.2062 85.9622 58.1096C85.7574 58.0129 85.5312 57.9634 85.2859 57.9634C85.0144 57.9634 84.7643 58.0294 84.5357 58.1591C84.3095 58.284 84.1285 58.4561 84.0023 58.673C83.8761 58.8876 83.8118 59.1328 83.8118 59.3992C83.8118 59.8071 83.9523 60.1489 84.2357 60.4201C84.5167 60.6935 84.8739 60.8303 85.305 60.8303C85.7741 60.8303 86.1694 60.644 86.4862 60.2786L86.7553 60.4767C86.5886 60.6889 86.3742 60.8562 86.1242 60.9694C85.8765 61.0849 85.5955 61.1462 85.2835 61.1462C84.6905 61.1462 84.2238 60.9482 83.8856 60.5592C83.5974 60.2291 83.4521 59.8354 83.4521 59.3685C83.4521 58.8781 83.626 58.4656 83.9761 58.1355C84.3238 57.8007 84.7548 57.6333 85.2764 57.6333C85.5955 57.6333 85.8765 57.6946 86.1289 57.8172C86.3885 57.9445 86.5981 58.1143 86.76 58.3406Z" fill="#C4842A"/>
<path d="M89.4678 61.0615V57.7183H89.5416L91.785 60.2811V57.7183H92.1184V61.0615H92.0422L89.8131 58.5317V61.0615H89.4678Z" fill="#C4842A"/>
<path d="M96.5696 58.2793L96.3052 58.5292C96.1171 58.343 95.9099 58.2015 95.6861 58.1072C95.4598 58.0152 95.2431 57.9657 95.0312 57.9657C94.7668 57.9657 94.5168 58.0317 94.2738 58.1614C94.0357 58.2887 93.8499 58.4655 93.719 58.6848C93.588 58.9017 93.5237 59.1351 93.5237 59.3827C93.5237 59.635 93.5927 59.8707 93.7285 60.0971C93.8619 60.3234 94.05 60.5026 94.2905 60.6299C94.5287 60.7596 94.793 60.8256 95.0788 60.8256C95.4265 60.8256 95.717 60.7266 95.9576 60.5332C96.1981 60.3399 96.3434 60.0876 96.3862 59.7811H95.3074V59.4581H96.7601C96.7577 59.9745 96.6053 60.3847 96.2957 60.6865C95.9885 60.9906 95.5789 61.1439 95.0669 61.1439C94.4429 61.1439 93.9476 60.9317 93.5808 60.5096C93.3046 60.1843 93.1641 59.8094 93.1641 59.3851C93.1641 59.0691 93.245 58.7744 93.4046 58.5033C93.5689 58.2298 93.788 58.0176 94.0667 57.862C94.3453 57.7111 94.662 57.6333 95.0145 57.6333C95.3003 57.6333 95.5694 57.6852 95.8218 57.7866C96.0814 57.8927 96.3267 58.0553 96.5696 58.2793Z" fill="#C4842A"/>
<path d="M99.5223 57.7183L101.096 61.0615H100.732L100.203 59.9604H98.7483L98.222 61.0615H97.8457L99.4389 57.7183H99.5223ZM99.4818 58.4303L98.9007 59.6398H100.051L99.4818 58.4303Z" fill="#C4842A"/>
<path d="M102.005 57.7183H102.676C103.06 57.7183 103.319 57.7348 103.455 57.7678C103.648 57.8173 103.805 57.914 103.931 58.0578C104.051 58.2016 104.115 58.3878 104.115 58.6071C104.115 58.8311 104.055 59.015 103.934 59.1588C103.817 59.3003 103.653 59.4016 103.443 59.4488C103.291 59.4865 103.003 59.503 102.586 59.503H102.341V61.0567H102.007V57.7183H102.005ZM102.341 58.0507V59.18L102.912 59.1894C103.146 59.1894 103.315 59.1659 103.422 59.1258C103.529 59.0833 103.612 59.0173 103.672 58.923C103.734 58.8311 103.762 58.725 103.762 58.6118C103.762 58.4987 103.734 58.3996 103.672 58.3053C103.612 58.211 103.534 58.145 103.431 58.1073C103.329 58.0696 103.169 58.0507 102.941 58.0507H102.341Z" fill="#C4842A"/>
<path d="M106.928 58.0507V57.7183H108.781V58.0507H108.028V61.0615H107.685V58.0507H106.928Z" fill="#C4842A"/>
<path d="M109.852 57.7183H110.531C110.9 57.7183 111.157 57.7324 111.288 57.7654C111.488 57.8079 111.65 57.9069 111.776 58.0578C111.9 58.2063 111.967 58.3902 111.967 58.6095C111.967 58.791 111.924 58.9513 111.836 59.0857C111.75 59.2248 111.624 59.3309 111.464 59.4016C111.305 59.47 111.083 59.5077 110.8 59.5101L112.014 61.0615H111.595L110.381 59.5101H110.188V61.0615H109.85V57.7183H109.852ZM110.188 58.0507V59.18L110.769 59.1871C110.997 59.1871 111.164 59.1635 111.267 59.1211C111.376 59.0787 111.46 59.0126 111.524 58.9183C111.583 58.824 111.614 58.7203 111.614 58.6071C111.614 58.4963 111.581 58.3926 111.519 58.303C111.457 58.2087 111.374 58.145 111.281 58.1073C111.181 58.0696 111.014 58.0507 110.783 58.0507H110.188Z" fill="#C4842A"/>
<path d="M114.701 57.7183L116.275 61.0615H115.915L115.382 59.9604H113.929L113.403 61.0615H113.026L114.622 57.7183H114.701ZM114.658 58.4303L114.084 59.6398H115.236L114.658 58.4303Z" fill="#C4842A"/>
<path d="M117.35 61.0615V57.7183H117.419L119.667 60.2811V57.7183H120V61.0615H119.926L117.695 58.5317V61.0615H117.35Z" fill="#C4842A"/>
<path d="M52.521 57.8877C52.5711 57.8358 52.6044 57.7769 52.6235 57.7015C52.6425 57.6307 52.6496 57.5506 52.6496 57.4657H52.2543V57.1121H52.8902V57.1993C52.8902 57.2299 52.8949 57.2653 52.9045 57.3054C52.9045 57.3903 52.8997 57.4775 52.8902 57.5718C52.8902 57.6732 52.864 57.7675 52.8164 57.85C52.7663 57.9349 52.6925 58.008 52.602 58.0669C52.5758 58.0881 52.5496 58.107 52.5187 58.1258C52.4877 58.1423 52.4591 58.1541 52.4282 58.1659C52.5734 58.3286 52.6854 58.5172 52.7663 58.7271C52.8473 58.9369 52.8902 59.1609 52.8902 59.3943C52.8902 59.9059 52.7211 60.3373 52.3853 60.6957C52.0471 61.0541 51.6399 61.2333 51.1588 61.2333C50.6921 61.2333 50.2896 61.0588 49.9467 60.7122C49.5942 60.3515 49.418 59.9224 49.418 59.4249C49.418 58.9109 49.5871 58.4772 49.9276 58.1188C50.2634 57.7675 50.6754 57.586 51.1517 57.586C51.3613 57.586 51.5661 57.626 51.7661 57.7085C51.9638 57.7887 52.1424 57.9019 52.2972 58.0504C52.3139 58.0433 52.3496 58.0221 52.4115 57.9797C52.471 57.9349 52.5091 57.9066 52.521 57.8877ZM51.1684 57.9278C50.7754 57.9254 50.4444 58.0716 50.1681 58.3616C49.8943 58.654 49.7561 59.0053 49.7561 59.4226C49.7561 59.8257 49.8943 60.1723 50.1729 60.4552C50.4539 60.7452 50.7849 60.8867 51.1684 60.8867C51.5494 60.8867 51.878 60.7429 52.1567 60.4529C52.4329 60.1629 52.5711 59.8092 52.5711 59.3919C52.5711 58.9887 52.4282 58.6445 52.1448 58.3569C51.8638 58.074 51.5399 57.9278 51.1684 57.9278Z" fill="#C4842A"/>
<path d="M62.2984 61.2383H61.9932V61.7505H62.2984V61.2383Z" fill="#C4842A"/>
<path d="M81.1445 57.5386L81.8661 57.0034L82.1305 57.2251L81.2779 57.6612L81.1445 57.5386Z" fill="#C4842A"/>
<path d="M98.7686 57.7038L99.3663 57.1875H99.6307L100.238 57.7038L99.8617 57.7085L99.4997 57.4115L99.1424 57.7038H98.7686ZM99.3496 61.2757H99.6568V61.792H99.3496V61.2757Z" fill="#C4842A"/>
<path d="M115.362 57.5386L115.229 57.6612L114.374 57.2251L114.638 57.0034L115.362 57.5386Z" fill="#C4842A"/>
<path d="M74.1022 0.00235997C66.3028 0.938355 58.3296 3.50821 57.8009 11.2862C57.5556 14.9241 58.6749 17.6566 59.9371 20.2948C56.7674 17.1733 52.1901 14.6694 45.7744 15.2801C49.6824 16.3882 54.2954 18.5077 56.7745 21.3086C57.2984 21.9051 58.0653 22.9378 57.8843 23.8148C57.5842 25.2931 54.8622 24.9913 53.2142 25.0715C56.6316 26.4413 60.4515 28.9098 65.324 28.7494C67.7603 28.6716 69.5488 27.191 69.3607 24.4443C69.0177 19.5097 65.386 15.2919 65.0049 9.71597C64.581 3.4257 68.9987 1.11753 73.9498 0.0848727C74.0498 0.115522 74.207 0.0848836 74.2475 0.0518762C74.2808 0.0282995 74.2498 0 74.1141 0H74.1022V0.00235997Z" fill="url(#paint0_linear)"/>
<defs>
<linearGradient id="paint0_linear" x1="70.9808" y1="20.0046" x2="58.7262" y2="7.15006" gradientUnits="userSpaceOnUse">
<stop stop-color="#FDB913"/>
<stop offset="0.2233" stop-color="#E5A521"/>
<stop offset="0.5065" stop-color="#CE9130"/>
<stop offset="0.7721" stop-color="#C08538"/>
<stop offset="1" stop-color="#BB813B"/>
</linearGradient>
</defs>
</svg>