<svg xmlns="http://www.w3.org/2000/svg" width="54" height="41" viewBox="0 0 54 41" fill="none">
<path d="M52.5521 38.4939H51.6635V32.0528C51.6635 31.5819 51.3135 31.1997 50.8823 31.1997H41.6437V22.9354C41.6437 22.4645 41.2938 22.0823 40.8625 22.0823H36.6333V19.2889C36.6333 18.818 36.2833 18.4358 35.8521 18.4358H28.2833V10.1704C28.2833 9.6995 27.9333 9.31733 27.5021 9.31733H26.5396C26.2219 7.51911 24.9208 6.0985 23.274 5.75273V1.053C23.274 0.582117 22.924 0.199951 22.4927 0.199951C22.0615 0.199951 21.7115 0.582117 21.7115 1.053V5.75273C20.0646 6.09963 18.7625 7.51911 18.4458 9.31733H17.4833C17.0521 9.31733 16.7021 9.6995 16.7021 10.1704V16.6115H10.8031C10.3719 16.6115 10.0219 16.9936 10.0219 17.4645V23.9056H2.45104C2.01979 23.9056 1.66979 24.2878 1.66979 24.7586V38.4939H0.78125C0.35 38.4939 0 38.876 0 39.3469C0 39.8178 0.35 40.2 0.78125 40.2H52.5521C52.9833 40.2 53.3333 39.8178 53.3333 39.3469C53.3333 38.876 52.9833 38.4939 52.5521 38.4939ZM50.101 38.4939H47.4885V35.7004C47.4885 35.2295 47.1385 34.8474 46.7073 34.8474C46.276 34.8474 45.926 35.2295 45.926 35.7004V38.4939H44.149V35.7004C44.149 35.2295 43.799 34.8474 43.3677 34.8474C42.9365 34.8474 42.5865 35.2295 42.5865 35.7004V38.4939H39.974V32.9058H50.1021L50.101 38.4939ZM40.0802 31.1997H39.1917C38.7604 31.1997 38.4104 31.5819 38.4104 32.0528V38.4939H36.6333V23.7884H40.0812V31.1997H40.0802ZM18.2625 11.0234H19.151C19.5823 11.0234 19.9323 10.6413 19.9323 10.1704C19.9323 8.63034 21.0802 7.37579 22.4906 7.37579C23.901 7.37579 25.049 8.62921 25.049 10.1704C25.049 10.6413 25.399 11.0234 25.8302 11.0234H26.7188V21.111C26.7188 21.5819 27.0687 21.9641 27.5 21.9641C27.9312 21.9641 28.2812 21.5819 28.2812 21.111V20.1408H35.0687V22.0812H32.5104C32.0792 22.0812 31.7292 22.4634 31.7292 22.9343C31.7292 23.4051 32.0792 23.7873 32.5104 23.7873H35.0687V25.7277H32.5104C32.0792 25.7277 31.7292 26.1099 31.7292 26.5808C31.7292 27.0516 32.0792 27.4338 32.5104 27.4338H35.0687V29.3742H32.5104C32.0792 29.3742 31.7292 29.7564 31.7292 30.2272C31.7292 30.6981 32.0792 31.0803 32.5104 31.0803H35.0687V33.0207H32.5104C32.0792 33.0207 31.7292 33.4029 31.7292 33.8737C31.7292 34.3446 32.0792 34.7268 32.5104 34.7268H35.0687V38.4916H29.951V37.5214C29.951 37.0505 29.601 36.6683 29.1698 36.6683C28.7385 36.6683 28.3885 37.0505 28.3885 37.5214V38.4916H26.6115V36.6092C26.6115 36.1383 26.2615 35.7561 25.8302 35.7561C25.399 35.7561 25.049 36.1383 25.049 36.6092V38.4916H23.2719V36.6092C23.2719 36.1383 22.9219 35.7561 22.4906 35.7561C22.0594 35.7561 21.7094 36.1383 21.7094 36.6092V38.4916H19.9323V29.257H28.3896V33.8749C28.3896 34.3458 28.7396 34.7279 29.1708 34.7279C29.6021 34.7279 29.9521 34.3458 29.9521 33.8749V28.404C29.9521 27.9331 29.6021 27.551 29.1708 27.551H28.2823V24.7575C28.2823 24.2866 27.9323 23.9045 27.501 23.9045C27.0698 23.9045 26.7198 24.2866 26.7198 24.7575V27.551H21.6021V17.4634C21.6021 16.9925 21.2521 16.6103 20.8208 16.6103H18.2625V11.0234ZM20.0406 25.6117V27.5521H19.1521H16.5938V25.6117H20.0406ZM18.3698 31.1997H16.5927V29.2593H18.3698V31.1997ZM16.5927 32.9058H18.3698V34.8462H16.5927V32.9058ZM16.5927 36.5523H18.3698V38.4939H16.5927V36.5523ZM20.0406 18.3176V20.258H11.5833V18.3176H20.0406ZM11.5823 21.9641H20.0396V23.9045H15.8104H11.5813L11.5823 21.9641ZM3.23229 25.6117H15.0302V38.4939H13.2521V37.5237C13.2521 37.0528 12.9021 36.6706 12.4708 36.6706C12.0396 36.6706 11.6896 37.0528 11.6896 37.5237V38.4939H9.9125V37.5237C9.9125 37.0528 9.5625 36.6706 9.13125 36.6706C8.7 36.6706 8.35 37.0528 8.35 37.5237V38.4939H6.57292V37.5237C6.57292 37.0528 6.22292 36.6706 5.79167 36.6706C5.36042 36.6706 5.01042 37.0528 5.01042 37.5237V38.4939H3.23229V25.6117ZM23.3844 13.818C23.3844 13.3471 23.7302 12.965 24.1615 12.965H24.1698C24.601 12.965 24.951 13.3471 24.951 13.818C24.951 14.2889 24.601 14.6711 24.1698 14.6711C23.7385 14.6711 23.3844 14.2889 23.3844 13.818ZM23.3844 24.7586C23.3844 24.2878 23.7302 23.9056 24.1615 23.9056H24.1698C24.601 23.9056 24.951 24.2878 24.951 24.7586C24.951 25.2295 24.601 25.6117 24.1698 25.6117C23.7385 25.6117 23.3844 25.2295 23.3844 24.7586ZM23.3844 21.111C23.3844 20.6401 23.7302 20.258 24.1615 20.258H24.1698C24.601 20.258 24.951 20.6401 24.951 21.111C24.951 21.5819 24.601 21.9641 24.1698 21.9641C23.7385 21.9641 23.3844 21.583 23.3844 21.111ZM23.3844 17.4645C23.3844 16.9936 23.7302 16.6115 24.1615 16.6115H24.1698C24.601 16.6115 24.951 16.9936 24.951 17.4645C24.951 17.9354 24.601 18.3176 24.1698 18.3176C23.7385 18.3176 23.3844 17.9354 23.3844 17.4645ZM20.8302 14.6711C20.399 14.6711 20.0448 14.2889 20.0448 13.818C20.0448 13.3471 20.3906 12.965 20.8219 12.965H20.8302C21.2615 12.965 21.6115 13.3471 21.6115 13.818C21.6115 14.2889 21.2615 14.6711 20.8302 14.6711ZM5.01042 33.876V32.9638C5.01042 32.4929 5.36042 32.1108 5.79167 32.1108C6.22292 32.1108 6.57292 32.4929 6.57292 32.9638V33.876C6.57292 34.3469 6.22292 34.7291 5.79167 34.7291C5.36042 34.7291 5.01042 34.3469 5.01042 33.876ZM8.35 33.876V32.9638C8.35 32.4929 8.7 32.1108 9.13125 32.1108C9.5625 32.1108 9.9125 32.4929 9.9125 32.9638V33.876C9.9125 34.3469 9.5625 34.7291 9.13125 34.7291C8.7 34.7291 8.35 34.3469 8.35 33.876ZM11.6896 33.876V32.9638C11.6896 32.4929 12.0396 32.1108 12.4708 32.1108C12.9021 32.1108 13.2521 32.4929 13.2521 32.9638V33.876C13.2521 34.3469 12.9021 34.7291 12.4708 34.7291C12.0396 34.7291 11.6896 34.3469 11.6896 33.876ZM5.01042 29.3173V28.4051C5.01042 27.9343 5.36042 27.5521 5.79167 27.5521C6.22292 27.5521 6.57292 27.9343 6.57292 28.4051V29.3173C6.57292 29.7882 6.22292 30.1704 5.79167 30.1704C5.36042 30.1704 5.01042 29.7882 5.01042 29.3173ZM8.35 29.3173V28.4051C8.35 27.9343 8.7 27.5521 9.13125 27.5521C9.5625 27.5521 9.9125 27.9343 9.9125 28.4051V29.3173C9.9125 29.7882 9.5625 30.1704 9.13125 30.1704C8.7 30.1704 8.35 29.7882 8.35 29.3173ZM11.6896 29.3173V28.4051C11.6896 27.9343 12.0396 27.5521 12.4708 27.5521C12.9021 27.5521 13.2521 27.9343 13.2521 28.4051V29.3173C13.2521 29.7882 12.9021 30.1704 12.4708 30.1704C12.0396 30.1704 11.6896 29.7882 11.6896 29.3173ZM23.2729 32.0528V32.965C23.2729 33.4358 22.9229 33.818 22.4917 33.818C22.0604 33.818 21.7104 33.4358 21.7104 32.965V32.0528C21.7104 31.5819 22.0604 31.1997 22.4917 31.1997C22.9229 31.1997 23.2729 31.5819 23.2729 32.0528ZM26.6125 32.0528V32.965C26.6125 33.4358 26.2625 33.818 25.8312 33.818C25.4 33.818 25.05 33.4358 25.05 32.965V32.0528C25.05 31.5819 25.4 31.1997 25.8312 31.1997C26.2635 31.1997 26.6125 31.5819 26.6125 32.0528Z" fill="#CC9036"/>
<path d="M52.5521 38.4939H51.6635V32.0528C51.6635 31.5819 51.3135 31.1997 50.8823 31.1997H41.6437V22.9354C41.6437 22.4645 41.2938 22.0823 40.8625 22.0823H36.6333V19.2889C36.6333 18.818 36.2833 18.4358 35.8521 18.4358H28.2833V10.1704C28.2833 9.6995 27.9333 9.31733 27.5021 9.31733H26.5396C26.2219 7.51911 24.9208 6.0985 23.274 5.75273V1.053C23.274 0.582117 22.924 0.199951 22.4927 0.199951C22.0615 0.199951 21.7115 0.582117 21.7115 1.053V5.75273C20.0646 6.09963 18.7625 7.51911 18.4458 9.31733H17.4833C17.0521 9.31733 16.7021 9.6995 16.7021 10.1704V16.6115H10.8031C10.3719 16.6115 10.0219 16.9936 10.0219 17.4645V23.9056H2.45104C2.01979 23.9056 1.66979 24.2878 1.66979 24.7586V38.4939H0.78125C0.35 38.4939 0 38.876 0 39.3469C0 39.8178 0.35 40.2 0.78125 40.2H52.5521C52.9833 40.2 53.3333 39.8178 53.3333 39.3469C53.3333 38.876 52.9833 38.4939 52.5521 38.4939ZM50.101 38.4939H47.4885V35.7004C47.4885 35.2295 47.1385 34.8474 46.7073 34.8474C46.276 34.8474 45.926 35.2295 45.926 35.7004V38.4939H44.149V35.7004C44.149 35.2295 43.799 34.8474 43.3677 34.8474C42.9365 34.8474 42.5865 35.2295 42.5865 35.7004V38.4939H39.974V32.9058H50.1021L50.101 38.4939ZM40.0802 31.1997H39.1917C38.7604 31.1997 38.4104 31.5819 38.4104 32.0528V38.4939H36.6333V23.7884H40.0812V31.1997H40.0802ZM18.2625 11.0234H19.151C19.5823 11.0234 19.9323 10.6413 19.9323 10.1704C19.9323 8.63034 21.0802 7.37579 22.4906 7.37579C23.901 7.37579 25.049 8.62921 25.049 10.1704C25.049 10.6413 25.399 11.0234 25.8302 11.0234H26.7188V21.111C26.7188 21.5819 27.0687 21.9641 27.5 21.9641C27.9312 21.9641 28.2812 21.5819 28.2812 21.111V20.1408H35.0687V22.0812H32.5104C32.0792 22.0812 31.7292 22.4634 31.7292 22.9343C31.7292 23.4051 32.0792 23.7873 32.5104 23.7873H35.0687V25.7277H32.5104C32.0792 25.7277 31.7292 26.1099 31.7292 26.5808C31.7292 27.0516 32.0792 27.4338 32.5104 27.4338H35.0687V29.3742H32.5104C32.0792 29.3742 31.7292 29.7564 31.7292 30.2272C31.7292 30.6981 32.0792 31.0803 32.5104 31.0803H35.0687V33.0207H32.5104C32.0792 33.0207 31.7292 33.4029 31.7292 33.8737C31.7292 34.3446 32.0792 34.7268 32.5104 34.7268H35.0687V38.4916H29.951V37.5214C29.951 37.0505 29.601 36.6683 29.1698 36.6683C28.7385 36.6683 28.3885 37.0505 28.3885 37.5214V38.4916H26.6115V36.6092C26.6115 36.1383 26.2615 35.7561 25.8302 35.7561C25.399 35.7561 25.049 36.1383 25.049 36.6092V38.4916H23.2719V36.6092C23.2719 36.1383 22.9219 35.7561 22.4906 35.7561C22.0594 35.7561 21.7094 36.1383 21.7094 36.6092V38.4916H19.9323V29.257H28.3896V33.8749C28.3896 34.3458 28.7396 34.7279 29.1708 34.7279C29.6021 34.7279 29.9521 34.3458 29.9521 33.8749V28.404C29.9521 27.9331 29.6021 27.551 29.1708 27.551H28.2823V24.7575C28.2823 24.2866 27.9323 23.9045 27.501 23.9045C27.0698 23.9045 26.7198 24.2866 26.7198 24.7575V27.551H21.6021V17.4634C21.6021 16.9925 21.2521 16.6103 20.8208 16.6103H18.2625V11.0234ZM20.0406 25.6117V27.5521H19.1521H16.5938V25.6117H20.0406ZM18.3698 31.1997H16.5927V29.2593H18.3698V31.1997ZM16.5927 32.9058H18.3698V34.8462H16.5927V32.9058ZM16.5927 36.5523H18.3698V38.4939H16.5927V36.5523ZM20.0406 18.3176V20.258H11.5833V18.3176H20.0406ZM11.5823 21.9641H20.0396V23.9045H15.8104H11.5813L11.5823 21.9641ZM3.23229 25.6117H15.0302V38.4939H13.2521V37.5237C13.2521 37.0528 12.9021 36.6706 12.4708 36.6706C12.0396 36.6706 11.6896 37.0528 11.6896 37.5237V38.4939H9.9125V37.5237C9.9125 37.0528 9.5625 36.6706 9.13125 36.6706C8.7 36.6706 8.35 37.0528 8.35 37.5237V38.4939H6.57292V37.5237C6.57292 37.0528 6.22292 36.6706 5.79167 36.6706C5.36042 36.6706 5.01042 37.0528 5.01042 37.5237V38.4939H3.23229V25.6117ZM23.3844 13.818C23.3844 13.3471 23.7302 12.965 24.1615 12.965H24.1698C24.601 12.965 24.951 13.3471 24.951 13.818C24.951 14.2889 24.601 14.6711 24.1698 14.6711C23.7385 14.6711 23.3844 14.2889 23.3844 13.818ZM23.3844 24.7586C23.3844 24.2878 23.7302 23.9056 24.1615 23.9056H24.1698C24.601 23.9056 24.951 24.2878 24.951 24.7586C24.951 25.2295 24.601 25.6117 24.1698 25.6117C23.7385 25.6117 23.3844 25.2295 23.3844 24.7586ZM23.3844 21.111C23.3844 20.6401 23.7302 20.258 24.1615 20.258H24.1698C24.601 20.258 24.951 20.6401 24.951 21.111C24.951 21.5819 24.601 21.9641 24.1698 21.9641C23.7385 21.9641 23.3844 21.583 23.3844 21.111ZM23.3844 17.4645C23.3844 16.9936 23.7302 16.6115 24.1615 16.6115H24.1698C24.601 16.6115 24.951 16.9936 24.951 17.4645C24.951 17.9354 24.601 18.3176 24.1698 18.3176C23.7385 18.3176 23.3844 17.9354 23.3844 17.4645ZM20.8302 14.6711C20.399 14.6711 20.0448 14.2889 20.0448 13.818C20.0448 13.3471 20.3906 12.965 20.8219 12.965H20.8302C21.2615 12.965 21.6115 13.3471 21.6115 13.818C21.6115 14.2889 21.2615 14.6711 20.8302 14.6711ZM5.01042 33.876V32.9638C5.01042 32.4929 5.36042 32.1108 5.79167 32.1108C6.22292 32.1108 6.57292 32.4929 6.57292 32.9638V33.876C6.57292 34.3469 6.22292 34.7291 5.79167 34.7291C5.36042 34.7291 5.01042 34.3469 5.01042 33.876ZM8.35 33.876V32.9638C8.35 32.4929 8.7 32.1108 9.13125 32.1108C9.5625 32.1108 9.9125 32.4929 9.9125 32.9638V33.876C9.9125 34.3469 9.5625 34.7291 9.13125 34.7291C8.7 34.7291 8.35 34.3469 8.35 33.876ZM11.6896 33.876V32.9638C11.6896 32.4929 12.0396 32.1108 12.4708 32.1108C12.9021 32.1108 13.2521 32.4929 13.2521 32.9638V33.876C13.2521 34.3469 12.9021 34.7291 12.4708 34.7291C12.0396 34.7291 11.6896 34.3469 11.6896 33.876ZM5.01042 29.3173V28.4051C5.01042 27.9343 5.36042 27.5521 5.79167 27.5521C6.22292 27.5521 6.57292 27.9343 6.57292 28.4051V29.3173C6.57292 29.7882 6.22292 30.1704 5.79167 30.1704C5.36042 30.1704 5.01042 29.7882 5.01042 29.3173ZM8.35 29.3173V28.4051C8.35 27.9343 8.7 27.5521 9.13125 27.5521C9.5625 27.5521 9.9125 27.9343 9.9125 28.4051V29.3173C9.9125 29.7882 9.5625 30.1704 9.13125 30.1704C8.7 30.1704 8.35 29.7882 8.35 29.3173ZM11.6896 29.3173V28.4051C11.6896 27.9343 12.0396 27.5521 12.4708 27.5521C12.9021 27.5521 13.2521 27.9343 13.2521 28.4051V29.3173C13.2521 29.7882 12.9021 30.1704 12.4708 30.1704C12.0396 30.1704 11.6896 29.7882 11.6896 29.3173ZM23.2729 32.0528V32.965C23.2729 33.4358 22.9229 33.818 22.4917 33.818C22.0604 33.818 21.7104 33.4358 21.7104 32.965V32.0528C21.7104 31.5819 22.0604 31.1997 22.4917 31.1997C22.9229 31.1997 23.2729 31.5819 23.2729 32.0528ZM26.6125 32.0528V32.965C26.6125 33.4358 26.2625 33.818 25.8312 33.818C25.4 33.818 25.05 33.4358 25.05 32.965V32.0528C25.05 31.5819 25.4 31.1997 25.8312 31.1997C26.2635 31.1997 26.6125 31.5819 26.6125 32.0528Z" fill="url(#paint0_linear)"/>
<defs>
<linearGradient id="paint0_linear" x1="0" y1="40.2" x2="53.3333" y2="40.2" gradientUnits="userSpaceOnUse">
<stop stop-color="#DCA344"/>
<stop offset="0.390625" stop-color="#FFD879" stop-opacity="0.4"/>
<stop offset="0.85561" stop-color="#D1A226"/>
<stop offset="1" stop-color="#DCA344"/>
</linearGradient>
</defs>
</svg>