<svg xmlns="http://www.w3.org/2000/svg" width="33" height="23" viewBox="0 0 33 23" fill="none">
<path d="M23.6 12C23.6 13.3333 23.7667 14 24.1 14C24.1 14 24.2667 13.9 24.6 13.7C24.8667 13.5 25.2333 13.3 25.7 13.1C26.1667 12.8333 26.6667 12.7 27.2 12.7C28.8667 12.7 30.2 13.1333 31.2 14C32.2667 14.8666 32.8 16.0666 32.8 17.6C32.8 19 32.3667 20.1 31.5 20.9C30.7 21.7 30 22.1666 29.4 22.3C28.8 22.3666 28.2333 22.4 27.7 22.4C24.9667 22.4 22.6667 21.5666 20.8 19.9C18.9333 18.1666 18 15.9333 18 13.2C18 7.26662 22.4667 2.93328 31.4 0.199951V4.09995C29.6 4.29995 27.8333 5.19995 26.1 6.79995C24.4333 8.33329 23.6 10.0666 23.6 12ZM5.6 12C5.6 13.3333 5.76667 14 6.1 14L6.6 13.7C6.86667 13.5 7.23333 13.3 7.7 13.1C8.16667 12.8333 8.66667 12.7 9.2 12.7C10.8667 12.7 12.2 13.1333 13.2 14C14.2667 14.8666 14.8 16.0666 14.8 17.6C14.8 19 14.3667 20.1 13.5 20.9C12.7 21.7 12 22.1666 11.4 22.3C10.8 22.3666 10.2333 22.4 9.7 22.4C6.96667 22.4 4.66667 21.5666 2.8 19.9C0.933334 18.1666 0 15.9333 0 13.2C0 7.26662 4.46667 2.93328 13.4 0.199951V4.09995C11.6 4.29995 9.83333 5.19995 8.1 6.79995C6.43333 8.33329 5.6 10.0666 5.6 12Z" fill="#162B75"/>
</svg>