<svg xmlns="http://www.w3.org/2000/svg" width="61" height="81" viewBox="0 0 61 81" fill="none">
<path d="M60.715 34.8659L58.9962 31.102C58.8998 30.8895 58.8998 30.6455 58.9962 30.4345L60.715 26.6691C61.2795 25.4302 60.9886 23.974 59.9908 23.0437L56.9564 20.2211C56.7856 20.0621 56.6923 19.837 56.7002 19.604L56.8394 15.4718C56.8853 14.1117 56.0567 12.8759 54.7775 12.3989L50.8892 10.9459C50.6694 10.8641 50.497 10.6925 50.4148 10.4737L48.9553 6.60272C48.4746 5.32919 47.2301 4.50273 45.8671 4.54996L41.7163 4.69006C41.4791 4.69636 41.2562 4.60505 41.0965 4.43504L38.2581 1.40943C37.3252 0.414531 35.861 0.124878 34.6165 0.688442L30.8358 2.39802C30.6223 2.49405 30.3772 2.49405 30.1653 2.39802L26.383 0.688442C25.1385 0.124878 23.6759 0.414531 22.7413 1.40943L19.9062 4.43032C19.7465 4.60033 19.5219 4.69478 19.2863 4.68534L15.1355 4.54523C13.7678 4.50116 12.5296 5.32446 12.0489 6.59957L10.5894 10.4705C10.5072 10.6893 10.3349 10.8609 10.1151 10.9428L6.22678 12.3958C4.94755 12.8743 4.1174 14.1085 4.16483 15.4686L4.30557 19.6009C4.31347 19.8339 4.22018 20.059 4.0494 20.218L1.01024 23.0437C0.0108934 23.974 -0.280056 25.4302 0.286031 26.6691L2.00327 30.433C2.09972 30.6455 2.09972 30.8879 2.00327 31.102L0.286031 34.8659C-0.280056 36.1048 0.0108934 37.5625 1.01024 38.4913L4.04466 41.3154C4.21543 41.4744 4.30873 41.6995 4.30082 41.9325L4.16009 46.0648C4.11423 47.4249 4.94281 48.6606 6.22204 49.1376L10.1103 50.5906C10.3301 50.6725 10.5025 50.8456 10.5847 51.0629L12.0442 54.9338C12.0916 55.0598 12.147 55.1826 12.2086 55.299L2.45234 70.2681C1.97955 70.9938 1.97639 71.8974 2.44285 72.6263C2.90932 73.3551 3.73315 73.7345 4.59335 73.6149L12.5344 72.5098C12.6403 72.4956 12.7463 72.5444 12.8016 72.6357L17.3461 79.9652C17.743 80.6043 18.4293 80.9916 19.1851 80.9995C19.193 80.9995 19.2009 80.9995 19.2104 80.9995C19.9552 80.9995 20.6414 80.6295 21.0462 80.0061L33.78 60.4671L34.6134 60.8434C35.8578 61.4054 37.3205 61.1157 38.255 60.1224L41.0917 57.1015C41.2514 56.9315 41.4791 56.8386 41.7116 56.8465L45.8624 56.9866C47.2286 57.0322 48.4683 56.2074 48.949 54.9323L50.4085 51.0613C50.4907 50.8425 50.6646 50.6709 50.8828 50.589L54.7711 49.1361C56.0519 48.6575 56.8805 47.4217 56.8347 46.0632L56.6939 41.9309C56.686 41.6979 56.7793 41.4728 56.9501 41.3138L59.9845 38.4897C60.9886 37.5625 61.2795 36.1048 60.715 34.8659ZM19.2167 78.4839L14.824 71.3968C14.2738 70.509 13.2491 70.0288 12.2086 70.1721L4.66135 71.2221L14.0397 56.8323C14.386 56.9441 14.7545 56.9992 15.134 56.9866L19.2847 56.8465C19.5203 56.8386 19.7449 56.9315 19.9046 57.1015L22.7413 60.1224C23.3565 60.7788 24.204 61.1283 25.0658 61.1283C25.5101 61.1283 25.9592 61.0354 26.383 60.8434L30.1653 59.1338C30.3788 59.0378 30.6223 59.0378 30.8358 59.1338L31.6011 59.4785L19.2167 78.4839ZM58.37 36.766L55.3356 39.5901C54.6636 40.215 54.2967 41.0982 54.3284 42.0128L54.4691 46.1451C54.4802 46.4914 54.2699 46.8062 53.9441 46.929L50.0558 48.382C49.1956 48.7031 48.5173 49.3785 48.1947 50.2348L46.7352 54.1058C46.6135 54.4301 46.294 54.641 45.9493 54.6284L41.7986 54.4883C40.8814 54.4584 39.9928 54.8236 39.3666 55.4927L36.5267 58.5136C36.2895 58.767 35.9163 58.841 35.5985 58.6977L31.8177 56.9882C30.9812 56.6088 30.0214 56.6088 29.1849 56.9882L25.4042 58.6977C25.0863 58.841 24.7147 58.767 24.476 58.5136L21.6392 55.4927C21.0368 54.8504 20.194 54.4883 19.3148 54.4883C19.2784 54.4883 19.2436 54.4883 19.2073 54.4899L15.0565 54.63C14.7086 54.641 14.3924 54.4317 14.269 54.1074L12.8079 50.2348C12.4854 49.3785 11.8054 48.7016 10.9468 48.382L7.05852 46.929C6.73278 46.8078 6.52089 46.493 6.53354 46.1466L6.67269 42.0144C6.70432 41.0998 6.33747 40.2166 5.66544 39.5932L2.63102 36.7691C2.37644 36.533 2.30212 36.1615 2.44602 35.8451L4.16325 32.0812C4.54433 31.2484 4.54433 30.2929 4.16325 29.4601L2.44602 25.6962C2.30212 25.3814 2.37644 25.0098 2.63102 24.7721L5.66544 21.948C6.33747 21.3231 6.70432 20.4399 6.67428 19.5253L6.53196 15.3899C6.52089 15.0436 6.7312 14.7287 7.05694 14.6075L10.9468 13.1545C11.807 12.8334 12.4854 12.1581 12.8079 11.3017L14.2674 7.43074C14.3892 7.10646 14.7039 6.89709 15.0549 6.90811L19.2057 7.04664C20.126 7.0797 21.0099 6.71133 21.6376 6.04387L24.4744 3.02298C24.7116 2.76954 25.0848 2.69555 25.4026 2.8388L29.1834 4.54838C30.0198 4.92619 30.9797 4.92619 31.8161 4.54838L35.5969 2.8388C35.9147 2.69555 36.2879 2.76954 36.5251 3.02298L39.3619 6.04387C39.988 6.71291 40.8783 7.0797 41.7938 7.04821L45.9446 6.90811C46.2877 6.89709 46.6087 7.10646 46.7305 7.43074L48.19 11.3017C48.5125 12.1581 49.1909 12.8334 50.0511 13.1545L53.9394 14.6075C54.2651 14.7303 54.477 15.0436 54.4644 15.3915L54.3236 19.5238C54.292 20.4384 54.6589 21.3199 55.3309 21.9449L58.3653 24.769C58.6199 25.0051 58.6942 25.3766 58.5503 25.693L56.8315 29.457C56.452 30.2897 56.452 31.2453 56.8315 32.078L58.5487 35.8419C58.6989 36.1583 58.6246 36.5298 58.37 36.766Z" fill="#DCA447"/>
<path d="M50.9832 31.9715C50.3333 31.8975 49.7435 32.3603 49.6675 33.0089C48.5385 42.6855 40.2987 49.9804 30.4981 49.9804C20.6928 49.9804 12.4513 42.6792 11.327 32.9979C11.2511 32.3509 10.6645 31.8833 10.013 31.9605C9.36311 32.036 8.89506 32.6216 8.97096 33.2686C10.2328 44.1416 19.4878 52.3417 30.4981 52.3417C41.502 52.3417 50.7555 44.1464 52.0236 33.2797C52.0995 32.6311 51.633 32.0455 50.9832 31.9715Z" fill="#DCA447"/>
<path d="M30.5001 9.19275C19.4867 9.19275 10.2317 17.3943 8.9714 28.2721C8.89708 28.9191 9.36355 29.5047 10.0134 29.5802C10.0593 29.5849 10.1052 29.5881 10.151 29.5881C10.7456 29.5881 11.2579 29.1442 11.3275 28.5428C12.4486 18.8583 20.69 11.554 30.4985 11.554C40.3054 11.554 48.5469 18.8552 49.668 28.5381C49.7439 29.1851 50.3305 29.6511 50.982 29.5755C51.6335 29.5015 52.1 28.9143 52.0241 28.2673C50.7654 17.3928 41.5103 9.19275 30.5001 9.19275Z" fill="#DCA447"/>
<path d="M50.9024 58.5458C50.5466 57.9979 49.8113 57.8421 49.2611 58.1979C48.7108 58.5521 48.5558 59.2841 48.9116 59.8319L56.3356 71.2228L48.7883 70.1728C47.7494 70.028 46.7232 70.5081 46.1729 71.396L41.7817 78.483L34.0921 66.6828C33.7364 66.135 33.0011 65.9807 32.4524 66.3349C31.9021 66.6891 31.7472 67.4211 32.1029 67.9674L39.9491 80.0068C40.3555 80.6302 41.0401 81.0002 41.7849 81.0002H41.8102C42.5645 80.9923 43.2523 80.605 43.6492 79.9659L48.1921 72.6349C48.2491 72.5436 48.355 72.4947 48.4609 72.5089L56.402 73.614C57.2622 73.7352 58.086 73.3558 58.5525 72.6254C59.0189 71.8966 59.0158 70.993 58.543 70.2673L50.9024 58.5458Z" fill="#DCA447"/>
<path d="M33.2283 24.4214V39.0899H30.5042V26.7055H27.4028V24.4214H33.2283Z" fill="#DCA447"/>
</svg>