<svg xmlns="http://www.w3.org/2000/svg" width="33" height="23" viewBox="0 0 33 23" fill="none">
<path d="M9.20005 10.3999C9.20005 9.06661 9.03338 8.39995 8.70005 8.39995C8.70005 8.39995 8.53338 8.49995 8.20005 8.69995C7.93338 8.89995 7.56672 9.09995 7.10005 9.29995C6.63338 9.56661 6.13338 9.69995 5.60005 9.69995C3.93338 9.69995 2.60005 9.26662 1.60005 8.39995C0.53338 7.53328 5.09782e-05 6.33328 5.11122e-05 4.79995C5.12346e-05 3.39995 0.433382 2.29995 1.30005 1.49995C2.10005 0.699947 2.80005 0.233278 3.40005 0.0999463C4.00005 0.0332788 4.56672 -5.5874e-05 5.10005 -5.58274e-05C7.83338 -5.55884e-05 10.1334 0.83328 12 2.49995C13.8667 4.23328 14.8 6.46662 14.8 9.19995C14.8 15.1333 10.3334 19.4666 1.40005 22.1999L1.40005 18.2999C3.20005 18.0999 4.96671 17.1999 6.70005 15.5999C8.36672 14.0666 9.20005 12.3333 9.20005 10.3999ZM27.2 10.3999C27.2001 9.06662 27.0334 8.39995 26.7 8.39995L26.2001 8.69995C25.9334 8.89995 25.5667 9.09995 25.1 9.29995C24.6334 9.56662 24.1334 9.69995 23.6 9.69995C21.9334 9.69995 20.6 9.26662 19.6 8.39995C18.5334 7.53328 18 6.33328 18 4.79995C18 3.39995 18.4334 2.29995 19.3 1.49995C20.1 0.699948 20.8001 0.233279 21.4001 0.0999479C22.0001 0.0332804 22.5667 -5.43004e-05 23.1001 -5.42538e-05C25.8334 -5.40148e-05 28.1334 0.833282 30.0001 2.49995C31.8667 4.23329 32.8001 6.46662 32.8 9.19995C32.8 15.1333 28.3334 19.4666 19.4 22.2L19.4 18.2999C21.2 18.1 22.9667 17.2 24.7 15.5999C26.3667 14.0666 27.2 12.3333 27.2 10.3999Z" fill="#162B75"/>
</svg>