<svg xmlns="http://www.w3.org/2000/svg" width="14" height="14" viewBox="0 0 14 14" fill="none">
<path d="M13.8674 13.2558L10.4583 9.93274C10.9924 9.40017 11.4242 8.76911 11.7235 8.0578C12.1667 6.99996 12.2803 5.85092 12.0568 4.73472C11.6667 2.78318 10.2917 1.17453 8.37879 0.426746C7.28031 0.00360861 6.08713 -0.109471 4.92425 0.109393C3.7235 0.331905 2.63638 0.890008 1.77274 1.72169C0.628804 2.82695 -0.00377096 4.30064 1.69134e-05 5.86187C0.00380479 7.4231 0.63638 8.89313 1.78789 9.9984C2.36365 10.5565 3.04168 10.9869 3.79925 11.2824C4.53031 11.5669 5.29925 11.7092 6.08713 11.7092H6.09092C6.48107 11.7092 6.87122 11.6727 7.25379 11.6034C8.19319 11.4283 9.05303 11.0526 9.78788 10.5127L13.2348 13.8686L13.2424 13.8759C13.3295 13.9598 13.4432 14 13.5568 14C13.6742 14 13.7917 13.9562 13.8788 13.8686C14.0455 13.6972 14.0455 13.4236 13.8674 13.2558ZM9.00379 10.0203C8.43561 10.3887 7.81061 10.644 7.14016 10.7754C6.44319 10.914 5.73486 10.9103 5.03789 10.7754C4.70456 10.7097 4.37501 10.6112 4.06062 10.4835C3.1288 10.1042 2.33335 9.47312 1.76895 8.66698C1.38638 8.11981 1.12123 7.51794 0.984864 6.87229C0.844713 6.20111 0.844713 5.51898 0.984864 4.8478C1.05305 4.5268 1.15532 4.20944 1.28789 3.90668C1.68183 3.00934 2.33713 2.24332 3.17425 1.6998C3.74244 1.33138 4.36743 1.07604 5.03789 0.944724C5.38258 0.875417 5.73486 0.842587 6.08713 0.842587C6.4394 0.842587 6.79167 0.875417 7.13637 0.944724C7.4697 1.01038 7.79925 1.10887 8.11364 1.23654C9.04546 1.61591 9.84091 2.24696 10.4053 3.05311C10.7879 3.60027 11.053 4.20215 11.1894 4.8478C11.3295 5.51898 11.3295 6.20111 11.1894 6.87229C11.1212 7.19329 11.0189 7.51064 10.8864 7.81341C10.4962 8.71075 9.8447 9.47312 9.00379 10.0203Z" fill="#222222"/>
</svg>