<svg xmlns="http://www.w3.org/2000/svg" width="15" height="14" viewBox="0 0 15 14" fill="none">
<path fill-rule="evenodd" clip-rule="evenodd" d="M13.0408 13.6667C13.0408 13.6667 14.1519 13.6667 14.1519 12.5556C14.1519 11.4445 13.0408 8.11115 7.48527 8.11115C1.92971 8.11115 0.818604 11.4445 0.818604 12.5556C0.818604 13.6667 1.92971 13.6667 1.92971 13.6667H13.0408ZM1.93527 12.6178V12.6156V12.6178ZM1.95416 12.5556H13.0164C13.0216 12.555 13.0268 12.5542 13.0319 12.5534L13.0408 12.5512C13.0397 12.2778 12.8697 11.4556 12.1164 10.7023C11.3919 9.97782 10.0286 9.22226 7.48527 9.22226C4.94083 9.22226 3.5786 9.97782 2.85416 10.7023C2.10083 11.4556 1.93194 12.2778 1.92971 12.5512C1.93785 12.5527 1.946 12.5542 1.95416 12.5556ZM13.0364 12.6178V12.6156V12.6178ZM7.48527 5.88893C8.07464 5.88893 8.63987 5.6548 9.05662 5.23806C9.47337 4.82131 9.70749 4.25608 9.70749 3.66671C9.70749 3.07734 9.47337 2.51211 9.05662 2.09536C8.63987 1.67861 8.07464 1.44449 7.48527 1.44449C6.8959 1.44449 6.33067 1.67861 5.91392 2.09536C5.49717 2.51211 5.26305 3.07734 5.26305 3.66671C5.26305 4.25608 5.49717 4.82131 5.91392 5.23806C6.33067 5.6548 6.8959 5.88893 7.48527 5.88893ZM10.8186 3.66671C10.8186 4.55076 10.4674 5.39861 9.84229 6.02373C9.21717 6.64885 8.36933 7.00004 7.48527 7.00004C6.60122 7.00004 5.75337 6.64885 5.12825 6.02373C4.50313 5.39861 4.15194 4.55076 4.15194 3.66671C4.15194 2.78265 4.50313 1.93481 5.12825 1.30968C5.75337 0.684564 6.60122 0.333374 7.48527 0.333374C8.36933 0.333374 9.21717 0.684564 9.84229 1.30968C10.4674 1.93481 10.8186 2.78265 10.8186 3.66671Z" fill="#222222"/>
</svg>